<?xml version="1.0" encoding="UTF-8"?>
<svg width="201px" height="35px" viewBox="0 0 201 35" version="1.1" xmlns="http://www.w3.org/2000/svg" xmlns:xlink="http://www.w3.org/1999/xlink">
    <title>Group 3</title>
    <defs>
        <path d="M80.4659388,4.8814769 C77.8032349,8.13699724 76.4709847,12.3276906 76.4709847,17.4508516 L76.4709847,17.4508516 C76.4709847,18.4617763 76.5221905,19.435727 76.6237039,20.3772126 L76.6237039,20.3772126 C76.9920266,23.7562804 78.0188385,26.6817397 79.7068346,29.1508851 L79.7068346,29.1508851 L79.713123,29.1526887 L79.7068346,29.1526887 C79.8856059,29.4151143 80.0724623,29.672129 80.2665055,29.9246348 L80.2665055,29.9246348 C82.8492563,33.3082116 86.2198584,35 90.3747184,35 L90.3747184,35 C94.5295784,35 97.8983839,33.2919791 100.482033,29.8759372 L100.482033,29.8759372 C100.663499,29.6387622 100.838677,29.3961763 101.00577,29.1508851 L101.00577,29.1508851 L100.998583,29.1508851 L101.00577,29.1481796 C102.681189,26.6862487 103.704408,23.7625931 104.078121,20.3781145 L104.078121,20.3781145 C104.185024,19.4068692 104.238026,18.3995517 104.238026,17.3543583 L104.238026,17.3543583 C104.238026,12.3917188 102.946202,8.26595553 100.362553,4.97887197 L100.362553,4.97887197 C97.8067524,1.65842158 94.6095314,0 90.773585,0 L90.773585,0 C86.5657224,0 83.1295409,1.62595656 80.4659388,4.8814769 L80.4659388,4.8814769 Z M85.3340872,20.3772126 C85.2586259,19.4952462 85.2208953,18.5366262 85.2208953,17.4995491 L85.2208953,17.4995491 C85.2208953,10.5385071 86.9115865,7.05753523 90.2956638,7.05753523 L90.2956638,7.05753523 C93.730947,7.05753523 95.4476902,10.5863029 95.4476902,17.6447399 L95.4476902,17.6447399 C95.4476902,18.6241014 95.413553,19.5340239 95.3443802,20.3745072 L95.3443802,20.3745072 C94.9275467,25.4201129 93.2575175,27.9424648 90.3351911,27.9424648 L90.3351911,27.9424648 C87.4326284,27.9424648 85.7661926,25.4210147 85.3340872,20.3772126 L85.3340872,20.3772126 Z M4.59505059,4.78498364 C1.53258188,7.97557394 0,12.0851047 0,17.113576 L0,17.113576 C0,18.2435392 0.0754612414,19.3320193 0.226383724,20.3772126 L0.226383724,20.3772126 C0.712390053,23.7472624 1.97995924,26.670918 4.02998963,29.1508851 L4.02998963,29.1508851 L4.03088798,29.1508851 C4.26176344,29.430445 4.50341909,29.7045941 4.75495656,29.9724305 L4.75495656,29.9724305 C7.9243287,33.3244441 11.9462332,35 16.8206701,35 L16.8206701,35 C19.4842722,35 22.4003102,34.4354693 25.5705807,33.3082116 L25.5705807,33.3082116 L25.5705807,17.4508516 L17.220435,17.4508516 L17.220435,27.7494782 C16.7676675,27.8775347 16.3409522,27.9424648 15.9411872,27.9424648 L15.9411872,27.9424648 C13.917209,27.9424648 12.2121442,26.9585942 10.8277898,24.9926567 L10.8277898,24.9926567 C9.90518628,23.660689 9.28981783,22.1222076 8.98168443,20.3772126 L8.98168443,20.3772126 L8.98168443,20.3745072 C8.8280669,19.500657 8.74991061,18.5745021 8.74991061,17.5969442 L8.74991061,17.5969442 C8.74991061,14.4063539 9.56291565,11.8434207 11.187129,9.90994821 L11.187129,9.90994821 C12.8122408,7.97557394 14.9691746,7.00973951 17.6588288,7.00973951 L17.6588288,7.00973951 C18.9641286,7.00973951 20.2290028,7.23428925 21.4543496,7.68609415 L21.4543496,7.68609415 L23.5726545,1.69178841 C21.2818668,0.562727062 18.8985492,0 16.4218035,0 L16.4218035,0 C11.6003692,0 7.65751931,1.59439334 4.59505059,4.78498364 L4.59505059,4.78498364 Z M194.407023,0.578959573 L194.407023,19.3852258 L182.262255,0.578959573 L176.428382,0.578959573 L176.428382,34.4201386 L183.021359,34.4201386 L183.021359,15.275695 L195.685373,34.4201386 L201,34.4201386 L201,0.578959573 L194.407023,0.578959573 Z M157.627753,0.578959573 L146.242988,34.4201386 L152.79464,34.4201386 L155.511245,26.2975703 L164.180304,26.2975703 L166.378562,34.4201386 L175.28748,34.4201386 L164.700448,0.578959573 L157.627753,0.578959573 Z M160.06587,10.3933163 L162.863326,20.980521 L156.909973,20.980521 L160.06587,10.3933163 Z M130.732109,0.578959573 L130.732109,34.4201386 L144.546008,34.4201386 L147.215,26.4093942 L139.121782,26.4093942 L139.121782,0.578959573 L130.732109,0.578959573 Z M105.618788,0.578959573 L105.618788,34.4201386 L113.968933,34.4201386 L113.968933,7.05753523 L115.048748,7.05753523 C116.646011,7.05753523 117.725825,7.17026101 118.284598,7.39571256 L118.284598,7.39571256 C119.695902,7.94401072 120.402004,9.18489603 120.402004,11.1183685 L120.402004,11.1183685 C120.402004,12.5369096 119.975289,13.7128649 119.123655,14.6471361 L119.123655,14.6471361 C118.297174,15.5823091 117.165256,16.1297055 115.727001,16.290227 L115.727001,16.290227 L115.727001,22.2863363 L116.446577,22.2863363 C119.084127,22.2863363 121.406357,21.6496612 123.415962,20.3772126 L123.415962,20.3772126 L123.41686,20.3772126 C124.02594,19.9912396 124.605375,19.5484528 125.156062,19.0470485 L125.156062,19.0470485 C126.221503,18.0794105 127.059662,16.8069619 127.672335,15.2278993 L127.672335,15.2278993 C128.311959,13.6488367 128.631771,12.0201747 128.631771,10.3455206 L128.631771,10.3455206 C128.631771,6.83208369 127.405526,4.17265724 124.955731,2.36814305 L124.955731,2.36814305 C123.784285,1.49699827 122.279552,0.949601917 120.441531,0.72415037 L120.441531,0.72415037 C119.643798,0.627657108 118.058214,0.578959573 115.687473,0.578959573 L115.687473,0.578959573 L105.618788,0.578959573 Z M48.853967,0.578959573 L48.853967,34.4201386 L58.1635485,34.4201386 C62.8241785,34.4201386 66.4867438,33.3569091 69.1503459,31.2295483 L69.1503459,31.2295483 C69.9372989,30.5973822 70.6478922,29.9029914 71.2812277,29.1508851 L71.2812277,29.1508851 L71.2390053,29.1508851 L71.2812277,29.1490814 C73.2468133,26.8097962 74.4766519,23.8861405 74.97254,20.3781145 L74.97254,20.3781145 C75.1396328,19.1949447 75.2231792,17.9450414 75.2231792,16.6302079 L75.2231792,16.6302079 C75.2231792,12.5044446 74.2502682,9.07217026 72.3062428,6.33158125 L72.3062428,6.33158125 C70.3622175,3.56123264 67.6456128,1.78737987 64.1564288,1.01453196 L64.1564288,1.01453196 C62.8520273,0.72415037 60.6941952,0.578959573 57.684729,0.578959573 L57.684729,0.578959573 L48.853967,0.578959573 Z M57.2445384,7.00973951 L58.6818954,7.00973951 C60.7076704,7.00973951 62.2788812,7.4597408 63.3964263,8.3633506 L63.3964263,8.3633506 C65.4213029,9.97397645 66.4337412,12.7939244 66.4337412,16.8231945 L66.4337412,16.8231945 C66.4337412,18.1154827 66.3537883,19.3013579 66.1947806,20.3772126 L66.1947806,20.3772126 L66.1947806,20.3799181 C65.8579001,22.6578805 65.1652737,24.4542784 64.1160031,25.7673082 L64.1160031,25.7673082 C62.9185051,27.2489758 61.0535344,27.9902605 58.5228878,27.9902605 L58.5228878,27.9902605 L57.2445384,27.9902605 L57.2445384,7.00973951 Z M28.162315,0.578959573 L28.162315,34.4201386 L46.8614309,34.4201386 L46.8614309,26.308392 L36.5537847,26.308392 L36.5537847,19.9650872 L44.982985,19.9650872 L44.982985,13.4865116 L36.5537847,13.4865116 L36.5537847,7.00973951 L45.1824183,7.00973951 L45.1824183,0.578959573 L28.162315,0.578959573 Z" id="path-1"></path>
    </defs>
    <g id="::-GP-2020" stroke="none" stroke-width="1" fill="none" fill-rule="evenodd">
        <g id="08-GP-So-gehts" transform="translate(-220.000000, -59.000000)">
            <g id="Group-3" transform="translate(220.000000, 59.000000)">
                <mask id="mask-2" fill="white">
                    <use xlink:href="#path-1"></use>
                </mask>
                <g id="Clip-2"></g>
                <path d="M-6,36 L210,36 L210,30.3840812 L-6,30.3840812 L-6,36 Z M-6,28.1061888 L210,28.1061888 L210,24.261964 L-6,24.261964 L-6,28.1061888 Z M-6,21.983171 L210,21.983171 L210,18.1389462 L-6,18.1389462 L-6,21.983171 Z M-6,15.8610538 L210,15.8610538 L210,12.0159283 L-6,12.0159283 L-6,15.8610538 Z M-6,9.73803598 L210,9.73803598 L210,5.89381118 L-6,5.89381118 L-6,9.73803598 Z M-6,3.61501813 L210,3.61501813 L210,-2 L-6,-2 L-6,3.61501813 Z" id="Fill-1" fill="#FFFFFF" mask="url(#mask-2)"></path>
            </g>
        </g>
    </g>
</svg>